<?xml version="1.0" standalone="no"?><!DOCTYPE svg PUBLIC "-//W3C//DTD SVG 1.1//EN" "http://www.w3.org/Graphics/SVG/1.1/DTD/svg11.dtd"><svg class="icon" width="200px" height="200.00px" viewBox="0 0 1024 1024" version="1.1" xmlns="http://www.w3.org/2000/svg"><path d="M648.015 198.46a39.385 39.385 0 0 1 69.868-21.13 655.21 655.21 0 0 0 45.135-18.472 430.868 430.868 0 0 0-211.633-78.316v133.651a648.606 648.606 0 0 0 96.63-15.754z m152.379 274.155h143.064A431.655 431.655 0 0 0 827.53 215.12a724.657 724.657 0 0 1-74.378 33.122 627.87 627.87 0 0 1 47.242 224.374z m-78.809 0a548.884 548.884 0 0 0-43.815-200.408 728.67 728.67 0 0 1-126.385 21.011v179.397h170.2z m-103.64 459.58c175.734-44.17 308.834-195.703 325.513-380.81H797.48a628.027 628.027 0 0 1-179.534 380.81z m100.312-380.81H551.385v335.753a549.455 549.455 0 0 0 166.872-335.753zM472.615 295.05c-62.621-1.87-124.061-11.678-183.276-29.027a39.385 39.385 0 1 1 22.174-75.598 648.743 648.743 0 0 0 161.102 25.816v-135.7C264.783 99.25 99.25 264.784 80.542 472.616h392.073V295.05z m0 648.408V551.385H80.542c18.707 207.832 184.24 373.366 392.073 392.073zM512 1024C229.218 1024 0 794.782 0 512S229.218 0 512 0s512 229.218 512 512-229.218 512-512 512z" fill="#333333" /></svg>