<?xml version="1.0" standalone="no"?><!DOCTYPE svg PUBLIC "-//W3C//DTD SVG 1.1//EN" "http://www.w3.org/Graphics/SVG/1.1/DTD/svg11.dtd"><svg class="icon" width="200px" height="200.00px" viewBox="0 0 1024 1024" version="1.1" xmlns="http://www.w3.org/2000/svg"><path d="M901.632 926.72c0 12.8-5.12 25.088-14.336 34.304-9.216 9.216-21.504 14.336-34.304 14.336H170.496c-12.8 0-25.6-5.12-34.304-14.336-9.216-9.216-14.336-21.504-14.336-34.304V48.64c0-12.8 5.12-25.6 14.336-34.304C144.896 5.12 157.696 0 170.496 0h418.816c12.8 0 25.6 5.12 34.816 14.336l263.68 263.68c9.216 9.216 14.336 21.504 14.336 34.816V926.72h-0.512z" fill="#EBECF0" /><path d="M901.632 926.72v48.64c0 12.8-5.12 25.6-14.336 34.304-9.216 9.216-21.504 14.336-34.304 14.336H170.496c-27.136 0-48.64-22.016-48.64-48.64v-48.64c0 12.8 5.12 25.088 14.336 34.304 9.216 9.216 21.504 14.336 34.304 14.336h682.496c27.136 0 48.64-22.016 48.64-48.64z" fill="#C1C7D0" /><path d="M24.064 536.576h975.36v243.712c0 27.136-22.016 48.64-48.64 48.64H73.216c-12.8 0-25.6-5.12-34.304-14.336-9.216-9.216-14.336-21.504-14.336-34.816v-243.2h-0.512z" fill="#217346" /><path d="M121.856 536.576v-97.792l-97.792 97.792h97.792z m779.776 0l1.024-97.792 97.28 97.792h-98.304z" fill="#185A35" /><path d="M901.632 312.832v6.656h-263.68c-27.136 0-48.64-22.016-48.64-48.64V0c12.8 0 25.6 5.12 34.816 14.336l264.192 263.68c8.704 9.216 13.824 21.504 13.312 34.816z" fill="#C1C7D0" /><path d="M177.214 774.744l62.749-95.815-56.862-87.798h43.335l36.823 58.992 36.071-58.992h42.96l-57.113 89.176 62.749 94.437h-44.713l-40.705-63.501-40.831 63.501z m190.752 0v-182.11h37.073v151.174h92.182v30.936z m146.288-59.743l36.072-3.507c2.171 12.107 6.575 21 13.213 26.677 6.638 5.678 15.593 8.517 26.866 8.517 11.94 0 20.937-2.526 26.991-7.577 6.053-5.052 9.08-10.959 9.08-17.723 0-4.342-1.273-8.036-3.82-11.084-2.547-3.048-6.993-5.699-13.339-7.953-4.342-1.503-14.236-4.175-29.684-8.016-19.872-4.927-33.816-10.98-41.832-18.161-11.272-10.103-16.908-22.419-16.908-36.948 0-9.352 2.651-18.098 7.953-26.239 5.302-8.141 12.942-14.341 22.92-18.599 9.978-4.259 22.023-6.388 36.134-6.388 23.045 0 40.392 5.052 52.04 15.155 11.648 10.103 17.764 23.588 18.349 40.455l-37.073 1.628c-1.587-9.435-4.989-16.22-10.208-20.353-5.219-4.133-13.047-6.199-23.484-6.199-10.771 0-19.205 2.212-25.3 6.638-3.924 2.839-5.886 6.638-5.886 11.397 0 4.342 1.836 8.058 5.51 11.147 4.676 3.925 16.032 8.016 34.068 12.274 18.035 4.259 31.374 8.663 40.016 13.214s15.406 10.771 20.29 18.662c4.885 7.89 7.327 17.639 7.327 29.245 0 10.521-2.922 20.374-8.767 29.558-5.845 9.185-14.111 16.011-24.799 20.478-10.688 4.467-24.006 6.701-39.954 6.701-23.212 0-41.039-5.365-53.481-16.094-12.441-10.73-19.872-26.365-22.294-46.905z m161.82 59.743l62.749-95.815-56.863-87.798h43.336l36.823 58.992 36.071-58.992h42.96l-57.113 89.176 62.749 94.437h-44.713l-40.706-63.501-40.83 63.501z" fill="#FFFFFF" /></svg>