<?xml version="1.0" standalone="no"?><!DOCTYPE svg PUBLIC "-//W3C//DTD SVG 1.1//EN" "http://www.w3.org/Graphics/SVG/1.1/DTD/svg11.dtd"><svg class="icon" width="200px" height="200.00px" viewBox="0 0 1024 1024" version="1.1" xmlns="http://www.w3.org/2000/svg"><path d="M901.632 926.72c0 12.8-5.12 25.088-14.336 34.304-9.216 9.216-21.504 14.336-34.304 14.336H170.496c-12.8 0-25.6-5.12-34.304-14.336-9.216-9.216-14.336-21.504-14.336-34.304V48.64c0-12.8 5.12-25.6 14.336-34.304C144.896 5.12 157.696 0 170.496 0h418.816c12.8 0 25.6 5.12 34.816 14.336l263.68 263.68c9.216 9.216 14.336 21.504 14.336 34.816V926.72h-0.512z" fill="#EBECF0" /><path d="M901.632 926.72v48.64c0 12.8-5.12 25.6-14.336 34.304-9.216 9.216-21.504 14.336-34.304 14.336H170.496c-27.136 0-48.64-22.016-48.64-48.64v-48.64c0 12.8 5.12 25.088 14.336 34.304 9.216 9.216 21.504 14.336 34.304 14.336h682.496c27.136 0 48.64-22.016 48.64-48.64z" fill="#C1C7D0" /><path d="M24.064 536.576h975.36v243.712c0 27.136-22.016 48.64-48.64 48.64H73.216c-12.8 0-25.6-5.12-34.304-14.336-9.216-9.216-14.336-21.504-14.336-34.816v-243.2h-0.512z" fill="#179CFF" /><path d="M121.856 536.576v-97.792l-97.792 97.792h97.792z m779.776 0l1.024-97.792 97.28 97.792h-98.304z" fill="#0083D3" /><path d="M901.632 312.832v6.656h-263.68c-27.136 0-48.64-22.016-48.64-48.64V0c12.8 0 25.6 5.12 34.816 14.336l264.192 263.68c8.704 9.216 13.824 21.504 13.312 34.816z" fill="#C1C7D0" /><path d="M259.555 774.827V588.762h56.226l33.761 126.92 33.38-126.92h56.353v186.065h-34.904V628.361l-36.933 146.466h-36.173l-36.807-146.466v146.466z m217.034 0V588.762h60.287c22.846 0 37.738 0.93 44.676 2.792 10.662 2.792 19.588 8.863 26.781 18.213 7.192 9.35 10.788 21.428 10.788 36.236 0 11.423-2.073 21.026-6.219 28.811-4.146 7.784-9.413 13.897-15.802 18.34-6.388 4.442-12.882 7.382-19.482 8.821-8.969 1.777-21.957 2.665-38.965 2.665h-24.495v70.187z m37.569-154.589v52.799h20.561c14.807 0 24.707-0.973 29.699-2.919 4.992-1.947 8.906-4.993 11.74-9.139 2.835-4.146 4.252-8.969 4.252-14.469 0-6.769-1.988-12.353-5.965-16.753s-9.011-7.15-15.104-8.25c-4.484-0.846-13.496-1.269-27.034-1.269z m126.666 105.217l34.523-4.188c1.1 8.799 4.061 15.526 8.884 20.18s10.661 6.981 17.515 6.981c7.362 0 13.559-2.793 18.594-8.377 5.035-5.585 7.552-13.115 7.552-22.592 0-8.969-2.412-16.077-7.235-21.323-4.823-5.246-10.703-7.869-17.642-7.869-4.569 0-10.026 0.889-16.372 2.666l3.934-29.065c9.646 0.254 17.008-1.841 22.084-6.283 5.077-4.442 7.616-10.344 7.616-17.705 0-6.262-1.862-11.254-5.585-14.977-3.723-3.723-8.673-5.584-14.85-5.584-6.092 0-11.296 2.115-15.611 6.346-4.315 4.23-6.938 10.407-7.869 18.53l-32.872-5.584c2.284-11.254 5.732-20.244 10.344-26.971 4.611-6.727 11.042-12.015 19.292-15.865 8.249-3.85 17.493-5.775 27.732-5.775 17.515 0 31.561 5.585 42.137 16.754 8.716 9.138 13.073 19.461 13.073 30.968 0 16.331-8.927 29.361-26.78 39.092 10.661 2.284 19.186 7.403 25.574 15.357 6.389 7.954 9.583 17.557 9.583 28.811 0 16.33-5.965 30.249-17.896 41.757C734.619 772.246 719.769 778 702 778c-16.838 0-30.799-4.844-41.884-14.532-11.084-9.689-17.515-22.36-19.292-38.013z" fill="#FFFFFF" /></svg>