<?xml version="1.0" standalone="no"?><!DOCTYPE svg PUBLIC "-//W3C//DTD SVG 1.1//EN" "http://www.w3.org/Graphics/SVG/1.1/DTD/svg11.dtd"><svg class="icon" width="200px" height="200.00px" viewBox="0 0 1024 1024" version="1.1" xmlns="http://www.w3.org/2000/svg"><path d="M483.627 63.933H236.6C117.99 61.935 63.9 111.375 63.9 162.54v685.765c9.618 62.836 84.01 111.05 172.7 111.05h722.713V63.934H483.627zM447.19 128.09l0.46 255.635-63.67-39.973-64.246 39.973V127.892l127.456 0.198z m447.973 767.116H236.6c-62.209 0-108.55-23.459-108.55-60.746 0-37.287 46.341-66.884 108.55-66.884h658.562v127.63zM236.6 704.04c-45.032 0-77.758 16.014-108.55 36.629V188.335l1.499-6.808c6.371-29.605 20.2-53.634 126.226-53.634v359.19L383.98 404.11l127.622 82.623V127.674h383.56V704.04H236.6z" /></svg>